<?xml version="1.0" standalone="no"?>
<!DOCTYPE svg PUBLIC "-//W3C//DTD SVG 20010904//EN"
 "http://www.w3.org/TR/2001/REC-SVG-20010904/DTD/svg10.dtd">
<svg version="1.0" xmlns="http://www.w3.org/2000/svg"
 width="3909.000000pt" height="945.000000pt" viewBox="0 0 3909.000000 945.000000"
 preserveAspectRatio="xMidYMid meet">

<g transform="translate(0.000000,945.000000) scale(0.100000,-0.100000)"
fill="none" stroke="none">
<path d="M0 4725 l0 -4725 19545 0 19545 0 0 4725 0 4725 -19545 0 -19545 0 0
-4725z m25710 1695 c0 -5 9 -6 20 -3 12 3 22 -1 26 -10 3 -8 16 -18 30 -21 13
-4 24 -11 24 -17 0 -6 -4 -7 -10 -4 -5 3 -10 1 -10 -4 0 -6 4 -11 9 -11 5 0
18 -20 30 -45 24 -50 25 -59 11 -50 -14 9 -13 -8 2 -23 16 -16 12 -109 -6
-146 -8 -17 -17 -39 -20 -49 -3 -10 -10 -15 -16 -12 -5 3 -11 -4 -12 -17 -2
-31 -4 -40 -13 -61 -4 -10 -2 -23 5 -32 9 -10 9 -15 1 -15 -6 0 -11 -8 -11
-18 0 -10 -6 -27 -14 -37 -8 -11 -11 -26 -8 -34 3 -9 1 -12 -6 -7 -8 5 -12 0
-12 -13 0 -11 -4 -23 -10 -26 -5 -3 -10 -19 -10 -36 0 -16 -4 -29 -8 -29 -12
0 -34 -68 -26 -81 4 -8 3 -9 -4 -5 -8 4 -12 0 -12 -12 0 -10 -9 -37 -20 -60
-11 -22 -20 -50 -20 -60 0 -10 -7 -33 -15 -50 -9 -17 -17 -52 -18 -78 -1 -31
-9 -55 -20 -67 -13 -12 -17 -27 -13 -42 3 -13 1 -27 -5 -30 -6 -4 -8 -13 -5
-21 3 -8 0 -14 -7 -14 -8 0 -6 -4 3 -10 13 -8 12 -10 -2 -10 -17 0 -22 -10
-19 -38 1 -8 -3 -19 -9 -27 -6 -7 -9 -19 -8 -26 2 -8 -2 -13 -9 -12 -7 2 -10
-3 -7 -11 3 -8 1 -17 -5 -21 -6 -3 -11 -14 -11 -25 0 -10 -7 -21 -16 -24 -12
-5 -14 -9 -5 -20 8 -10 6 -17 -9 -31 -12 -10 -19 -24 -16 -30 2 -7 0 -18 -6
-26 -8 -11 -9 -10 -4 4 3 9 1 17 -4 17 -9 0 -14 -28 -11 -57 1 -7 -8 -31 -19
-53 -11 -22 -18 -46 -14 -51 4 -6 1 -15 -5 -19 -13 -7 -33 -71 -32 -102 0 -10
-4 -18 -10 -18 -5 0 -9 -9 -9 -20 0 -11 -4 -20 -10 -20 -5 0 -10 -13 -10 -30
0 -21 -12 -42 -47 -77 -27 -26 -49 -59 -51 -73 -2 -14 -10 -30 -17 -36 -8 -6
-15 -17 -17 -24 -2 -8 -13 -26 -25 -40 -13 -13 -23 -30 -23 -36 0 -6 -6 -17
-14 -24 -8 -6 -12 -18 -9 -26 3 -10 0 -12 -10 -8 -11 4 -17 -3 -22 -24 -3 -17
-13 -33 -22 -36 -9 -4 -13 -9 -9 -13 3 -4 -4 -18 -16 -31 -13 -14 -17 -22 -10
-18 6 4 12 2 12 -4 0 -7 -9 -14 -20 -17 -11 -3 -20 -10 -20 -15 0 -13 -26 -38
-40 -38 -6 0 -8 -4 -5 -10 3 -5 2 -10 -4 -10 -6 0 -8 -8 -4 -17 3 -10 3 -15
-2 -11 -4 4 -26 -12 -49 -36 -31 -33 -54 -46 -93 -55 -29 -7 -53 -16 -53 -20
0 -3 -20 -6 -44 -6 -24 0 -42 -3 -39 -7 2 -5 -16 -8 -41 -8 -24 0 -51 -2 -58
-5 -8 -3 -23 4 -35 15 -12 11 -29 20 -37 20 -25 0 -46 12 -46 25 0 8 -9 16
-20 20 -10 3 -29 26 -42 51 -12 25 -30 50 -40 55 -10 5 -18 18 -18 29 0 10 -6
23 -13 27 -20 12 -30 45 -15 54 8 5 11 28 10 66 -1 32 2 73 7 90 6 20 6 35 0
38 -9 6 -2 52 11 70 4 6 10 30 14 55 4 24 11 49 16 55 22 26 79 147 85 179 4
20 11 36 16 36 5 0 9 6 9 14 0 8 56 70 123 138 68 69 138 145 155 170 25 36
48 54 108 83 71 35 80 37 145 32 74 -5 113 -24 124 -57 3 -11 11 -20 16 -20 5
0 9 -9 9 -20 0 -11 5 -20 10 -20 6 0 10 7 10 15 0 8 9 23 21 34 28 26 44 58
59 120 6 28 15 51 19 51 4 0 13 16 21 35 8 19 17 35 21 35 4 0 5 9 2 20 -3 11
0 20 6 20 6 0 11 9 11 20 0 17 19 75 65 195 5 11 9 25 10 30 13 95 25 139 55
195 4 9 11 30 15 48 3 18 10 32 14 32 5 0 14 21 21 48 7 26 16 52 19 57 16 29
26 122 14 138 -15 18 -21 158 -12 230 2 15 12 30 22 33 9 3 17 12 17 20 0 8 3
13 8 12 4 0 14 2 22 5 66 29 140 43 140 27z m-8872 -386 c5 3 23 -8 40 -25 20
-20 32 -25 35 -17 3 7 5 -16 5 -52 0 -73 -20 -126 -50 -136 -11 -3 -17 -8 -14
-12 3 -3 -1 -16 -9 -29 -9 -13 -15 -29 -14 -36 2 -17 -24 -77 -33 -77 -4 0 -8
-7 -8 -16 0 -14 -25 -70 -55 -124 -8 -14 -15 -33 -15 -42 0 -10 -4 -18 -9 -18
-5 0 -13 -15 -16 -32 -4 -18 -13 -40 -20 -48 -7 -8 -16 -30 -20 -48 -4 -18
-11 -30 -16 -26 -5 3 -9 -4 -9 -15 0 -11 -4 -22 -9 -25 -13 -8 -47 -76 -55
-111 -4 -16 -12 -33 -18 -37 -6 -3 -11 -22 -10 -42 2 -59 -33 -126 -58 -111
-5 3 -7 0 -4 -8 3 -8 -4 -32 -15 -53 -12 -21 -21 -34 -21 -29 -1 6 -9 -14 -19
-44 -11 -30 -17 -60 -14 -68 4 -9 0 -11 -13 -6 -11 4 -15 3 -11 -4 7 -11 -16
-66 -24 -59 -2 2 -5 -14 -7 -37 -1 -22 -8 -47 -14 -55 -14 -16 -15 -18 -28
-96 -6 -33 -13 -63 -15 -67 -3 -4 -1 -19 4 -32 9 -23 12 -24 36 -14 14 7 28
20 31 30 3 9 10 14 16 11 6 -4 18 2 27 13 9 11 36 27 61 36 25 9 58 28 74 42
16 14 33 25 37 25 4 0 14 6 21 13 41 39 177 108 200 101 10 -3 21 3 27 15 7
12 19 18 31 16 11 -2 18 0 15 6 -4 5 0 9 8 9 7 0 19 11 25 25 8 17 20 25 38
25 17 0 28 6 31 18 3 13 11 18 26 15 13 -3 32 4 46 16 13 12 46 31 72 43 27
13 48 28 49 33 0 6 19 16 43 23 23 8 49 19 57 26 27 24 108 65 115 58 3 -3 3
2 -1 11 -3 10 -3 17 2 16 15 -4 84 29 84 40 0 5 8 9 18 9 18 -2 95 43 107 62
3 5 17 10 31 10 13 0 24 4 24 9 0 5 16 16 35 25 20 10 33 21 30 27 -8 12 2 12
25 -1 15 -8 20 -6 24 8 5 15 99 72 120 72 4 0 16 9 27 19 11 10 31 18 45 16
13 -1 22 1 19 4 -2 4 11 13 28 20 18 7 47 19 65 27 18 8 39 14 46 14 8 0 19 7
26 15 24 29 127 16 162 -20 47 -48 51 -58 55 -134 2 -42 5 -93 7 -114 2 -22 0
-53 -5 -70 -6 -18 -16 -66 -24 -107 -13 -71 -45 -202 -64 -262 -6 -17 -6 -30
0 -34 6 -4 6 -11 -1 -19 -7 -8 -9 -23 -6 -33 4 -11 1 -31 -5 -45 -9 -20 -8
-32 2 -56 8 -17 17 -31 21 -31 3 0 14 -7 22 -15 20 -21 71 -27 104 -13 15 6
42 13 60 15 19 2 46 10 60 17 15 7 32 11 39 9 6 -2 18 6 26 18 10 13 22 19 32
15 9 -3 18 0 21 9 4 8 13 15 21 15 7 0 25 11 38 25 14 13 25 21 25 18 0 -3 12
6 26 21 15 14 30 26 35 26 14 0 129 121 129 136 0 8 4 14 10 14 5 0 12 16 16
35 3 19 12 39 19 43 17 10 55 74 55 93 0 9 15 22 33 30 17 7 34 16 37 19 3 4
18 11 33 16 34 11 160 -14 154 -31 -5 -12 18 -37 26 -28 4 3 12 -1 19 -8 15
-15 22 -61 23 -146 0 -29 3 -53 7 -53 4 0 4 -7 1 -17 -9 -23 7 -11 59 42 24
25 49 45 56 45 6 0 12 4 12 9 0 5 9 13 20 16 11 3 20 13 20 21 0 8 11 19 25
26 13 6 22 15 19 19 -3 5 6 13 21 19 14 5 28 17 31 25 4 8 11 15 16 15 5 0 23
14 40 30 16 17 35 30 43 30 7 0 16 7 19 16 4 9 9 14 13 11 3 -4 15 -1 27 5 53
28 119 11 187 -49 29 -26 31 -32 27 -82 -3 -30 -10 -57 -16 -59 -19 -6 -102
-96 -102 -110 0 -9 -7 -11 -20 -7 -15 5 -18 3 -14 -9 3 -8 -3 -19 -15 -26 -12
-6 -21 -17 -21 -25 0 -8 -7 -15 -15 -15 -8 0 -15 -6 -15 -14 0 -8 -14 -19 -31
-25 -19 -6 -28 -15 -23 -22 4 -8 0 -9 -15 -4 -19 6 -26 -2 -22 -27 0 -4 -8
-10 -19 -13 -11 -4 -20 -12 -21 -18 -1 -27 -68 -68 -111 -70 -24 -1 -46 -6
-49 -10 -3 -4 -19 5 -36 20 -17 16 -36 27 -42 25 -6 -2 -14 5 -18 15 -9 24
-32 47 -40 39 -11 -11 -31 15 -26 34 3 11 0 20 -6 20 -6 0 -11 -4 -11 -9 0 -5
-9 -7 -19 -4 -18 5 -29 -12 -37 -54 -1 -6 -7 -28 -14 -48 -6 -20 -9 -42 -6
-50 3 -8 1 -17 -4 -20 -6 -4 -6 -13 0 -26 6 -11 8 -24 5 -29 -8 -13 26 -59 43
-60 7 0 10 -4 7 -10 -3 -5 1 -10 9 -10 9 0 16 -7 16 -15 0 -8 14 -17 35 -21
19 -3 35 -10 35 -14 0 -14 56 -31 101 -31 24 0 76 0 114 0 60 -1 107 4 125 12
3 1 12 3 20 3 60 6 120 19 120 27 0 6 6 9 13 8 19 -4 101 12 113 22 7 6 35 12
63 16 28 3 51 9 51 12 0 11 53 30 100 36 66 9 181 53 323 126 22 10 47 19 58
19 10 0 19 7 19 15 0 12 7 14 26 9 18 -5 25 -3 20 4 -4 6 1 11 11 11 89 -2
167 42 178 99 3 18 12 32 20 32 8 0 15 4 15 9 0 13 193 73 213 65 9 -3 17 -1
17 5 0 6 7 8 15 5 14 -6 101 73 97 89 -1 4 3 7 8 7 6 0 29 18 52 40 23 22 50
42 60 46 10 3 18 8 18 12 0 4 17 8 37 10 20 1 44 9 52 16 10 9 27 12 44 9 16
-3 27 -1 27 6 0 6 15 11 33 10 17 0 54 2 81 5 44 5 52 2 83 -24 18 -17 32 -30
29 -30 -3 0 -1 -14 4 -31 7 -23 5 -39 -6 -60 -8 -16 -12 -34 -9 -39 3 -6 -1
-10 -10 -10 -9 0 -15 -5 -13 -12 8 -24 -55 -77 -99 -84 -24 -3 -41 -9 -39 -13
2 -3 -8 -15 -22 -25 -16 -12 -23 -14 -18 -5 11 21 -16 -15 -36 -48 -32 -52
-43 -67 -55 -78 -16 -13 -73 -126 -73 -143 0 -7 4 -11 9 -7 6 3 13 -10 16 -28
5 -27 14 -37 43 -49 103 -41 124 -45 227 -36 55 4 114 10 130 13 17 3 77 10
135 16 58 5 117 14 131 20 14 5 39 11 55 13 16 2 29 5 29 6 0 1 23 4 50 7 28
2 56 9 63 15 6 6 12 7 12 2 0 -5 4 -4 8 2 7 10 66 30 125 41 15 3 27 10 27 15
0 5 4 7 8 4 5 -3 39 6 76 20 37 13 72 22 77 19 5 -4 9 -1 9 4 0 6 4 11 9 11
23 0 168 75 202 104 21 17 47 32 58 33 11 1 44 14 73 29 29 15 68 34 86 43 17
8 32 21 32 29 0 7 14 18 30 23 17 6 30 17 30 24 0 12 66 85 77 85 3 0 14 12
25 26 11 14 26 23 33 20 8 -2 16 2 19 10 4 10 13 13 26 9 11 -4 20 -2 20 4 0
6 8 11 18 11 10 0 28 7 40 16 12 8 22 13 22 10 0 -3 16 6 36 19 20 14 43 25
50 25 8 0 14 5 14 10 0 6 7 10 15 10 8 0 30 9 50 20 19 11 35 17 35 13 0 -3 9
5 21 18 11 13 26 23 33 21 13 -2 63 7 161 31 97 24 315 4 315 -28 0 -7 11 -20
24 -31 14 -10 23 -21 20 -26 -3 -4 -2 -8 3 -9 51 -5 68 -21 78 -78 4 -24 1
-47 -9 -66 -9 -17 -16 -41 -16 -54 0 -13 -3 -21 -6 -18 -4 4 -14 -2 -23 -12
-14 -16 -26 -18 -71 -14 -30 3 -65 4 -77 4 -12 0 -35 4 -50 10 -15 6 -28 10
-28 9 0 0 -18 6 -40 13 -35 13 -45 12 -80 -1 -22 -9 -43 -20 -46 -24 -3 -5
-10 -8 -15 -7 -14 2 -54 -12 -54 -20 0 -4 -15 -15 -32 -25 -49 -28 -108 -95
-108 -123 0 -13 -4 -21 -10 -18 -5 3 -12 -7 -16 -22 -3 -15 -8 -35 -11 -43 -3
-8 -7 -26 -10 -40 -2 -14 -10 -32 -17 -40 -20 -23 -28 -63 -11 -57 14 6 9 -29
-6 -39 -5 -3 -9 -16 -9 -30 0 -14 -6 -27 -13 -30 -11 -4 -12 -17 -6 -89 2 -26
-6 -63 -13 -59 -8 5 -14 -16 -23 -88 -3 -27 -10 -48 -16 -48 -5 0 -9 -8 -9
-18 0 -11 -9 -27 -20 -37 -12 -10 -18 -25 -15 -32 3 -9 0 -11 -6 -7 -6 4 -14
3 -18 -2 -3 -5 -31 -17 -62 -28 -49 -16 -62 -17 -95 -6 -43 14 -86 40 -66 40
7 0 11 4 7 10 -3 5 -12 7 -20 3 -11 -4 -13 -1 -8 13 5 14 3 16 -11 11 -14 -6
-17 -3 -12 8 3 8 -3 30 -14 48 -21 33 -27 106 -11 123 10 9 29 102 38 180 4
38 3 41 -19 40 -12 -1 -25 -4 -28 -8 -3 -4 -18 -9 -34 -12 -16 -3 -33 -11 -37
-18 -4 -7 -11 -9 -15 -5 -4 4 -14 1 -23 -6 -9 -7 -34 -19 -56 -26 -22 -8 -51
-22 -64 -32 -13 -11 -30 -19 -38 -19 -7 0 -25 -7 -38 -16 -14 -9 -25 -13 -25
-9 0 4 -7 1 -16 -6 -17 -14 -36 -20 -71 -23 -13 0 -23 -5 -23 -9 0 -5 -4 -5
-10 -2 -5 3 -10 1 -10 -4 0 -6 -7 -11 -15 -11 -8 0 -31 -9 -51 -20 -20 -12
-49 -22 -65 -23 -16 -1 -31 -7 -33 -13 -4 -10 -77 -26 -126 -29 -8 0 -20 -4
-25 -7 -6 -3 -37 -9 -70 -13 -33 -4 -88 -14 -122 -21 -34 -8 -90 -17 -125 -19
-76 -7 -100 -10 -200 -28 -43 -8 -78 -10 -78 -6 0 5 -7 9 -16 9 -8 0 -12 -4
-9 -10 3 -5 2 -10 -4 -10 -5 0 -12 4 -15 9 -5 7 -57 7 -76 0 -3 -1 -72 -2
-155 -3 -134 -1 -151 1 -164 17 -7 10 -19 16 -27 13 -7 -3 -16 -1 -20 5 -3 6
-12 8 -20 5 -8 -3 -17 1 -20 9 -4 8 -11 15 -16 15 -6 0 -19 9 -29 21 -9 11
-21 19 -26 18 -4 -1 -17 16 -28 38 -11 22 -25 47 -32 54 -6 8 -14 32 -16 54
-6 53 -15 72 -36 78 -14 3 -69 -5 -193 -30 -15 -3 -25 -9 -22 -14 3 -5 -2 -9
-11 -9 -8 0 -24 -4 -35 -10 -11 -5 -29 -14 -40 -20 -11 -5 -28 -10 -39 -10
-10 0 -24 -7 -31 -15 -7 -8 -20 -15 -30 -15 -10 0 -21 -7 -24 -16 -4 -11 -13
-14 -30 -10 -12 3 -26 2 -30 -2 -4 -4 -11 -7 -14 -8 -25 -2 -87 -25 -101 -37
-9 -8 -36 -17 -60 -20 -24 -3 -47 -11 -51 -17 -4 -7 -25 -13 -46 -15 -52 -3
-94 -15 -94 -27 0 -5 -4 -7 -10 -3 -5 3 -25 -1 -44 -9 -19 -8 -37 -11 -41 -8
-4 4 -11 0 -16 -9 -9 -18 -121 -41 -250 -53 -14 -2 -31 -6 -37 -10 -26 -16
-150 -21 -257 -11 -27 3 -64 6 -82 7 -18 1 -30 5 -27 10 3 5 -9 8 -28 8 -18
-1 -46 1 -63 5 -16 3 -36 6 -42 7 -7 1 -13 4 -13 8 0 4 -10 7 -22 7 -30 0 -58
12 -85 36 -17 15 -23 17 -23 6 0 -12 -2 -12 -9 1 -6 8 -8 17 -6 21 3 3 -8 12
-23 18 -78 36 -99 51 -117 86 -31 59 -71 98 -100 100 -15 0 -29 -3 -31 -7 -3
-4 -10 -5 -17 -2 -7 2 -26 -8 -43 -24 -17 -15 -36 -26 -41 -25 -6 2 -17 -2
-24 -10 -15 -15 -54 -27 -109 -34 -19 -2 -57 -11 -85 -20 -27 -9 -57 -18 -65
-20 -26 -8 -108 -8 -103 0 3 6 -83 12 -110 8 -4 -1 -28 4 -54 10 -35 9 -59 25
-100 68 -29 31 -59 68 -66 84 -6 15 -15 27 -19 27 -5 0 -8 7 -8 16 0 8 -3 13
-7 11 -5 -3 -8 43 -7 101 0 190 3 224 16 216 8 -5 9 -2 4 11 -10 28 5 154 21
170 10 10 11 20 4 32 -6 13 -5 29 5 51 18 44 4 82 -31 82 -14 0 -25 -4 -25 -9
0 -5 -9 -11 -21 -14 -12 -3 -18 -10 -14 -16 4 -7 -3 -11 -17 -11 -13 0 -32 -7
-42 -15 -11 -8 -28 -15 -39 -15 -13 0 -17 -5 -13 -16 3 -9 2 -12 -5 -9 -6 4
-18 0 -27 -8 -9 -8 -44 -28 -77 -44 -33 -17 -82 -43 -110 -59 -27 -16 -68 -38
-90 -49 -22 -11 -61 -37 -87 -57 -26 -21 -52 -38 -58 -38 -7 0 -24 -9 -40 -20
-15 -11 -30 -17 -34 -13 -3 3 -6 -1 -6 -10 0 -9 -3 -16 -7 -15 -21 4 -116 -53
-113 -68 1 -5 -7 -11 -17 -14 -16 -4 -54 -29 -197 -126 -17 -12 -34 -20 -38
-18 -4 3 -9 0 -13 -6 -3 -5 -15 -10 -26 -10 -11 0 -19 -7 -19 -16 0 -8 -4 -12
-10 -9 -5 3 -23 -8 -39 -24 -16 -17 -47 -37 -68 -46 -21 -9 -42 -21 -48 -28
-13 -16 -83 -63 -117 -78 -16 -7 -28 -16 -28 -20 0 -4 -10 -11 -22 -15 -13 -3
-31 -13 -40 -22 -10 -8 -18 -12 -18 -8 0 4 -13 -2 -30 -14 -33 -24 -104 -37
-229 -43 -86 -4 -146 8 -162 34 -5 9 -9 9 -9 2 0 -15 -50 7 -50 23 0 7 -7 25
-15 40 -16 32 -20 104 -6 104 5 0 9 15 9 33 -1 74 10 159 22 167 7 4 9 13 6
19 -4 6 -2 11 3 11 6 0 11 21 11 50 0 28 4 50 10 50 5 0 7 13 4 30 -5 23 -1
34 17 51 19 16 20 19 6 15 -27 -9 -16 16 14 31 13 7 18 13 12 13 -22 0 -14 40
12 64 14 13 25 31 25 40 0 9 5 16 11 16 5 0 7 5 4 10 -3 6 -1 10 4 10 6 0 11
7 11 15 0 8 5 15 10 15 7 0 7 7 0 20 -8 16 -8 22 3 26 8 3 17 23 21 44 3 22
17 51 30 65 15 16 22 33 19 43 -5 12 -2 14 11 9 9 -4 15 -3 12 1 -11 18 36
129 63 149 9 7 11 13 5 13 -15 0 -12 33 4 43 6 4 12 17 12 27 0 19 32 85 51
105 13 13 11 27 -3 19 -7 -4 -8 -3 -4 4 4 7 13 12 20 12 6 0 20 24 30 53 11
28 23 56 27 61 5 6 9 17 9 26 0 9 9 26 20 38 11 11 17 27 14 35 -3 8 -1 18 5
22 6 3 11 16 12 28 0 21 1 21 9 2 8 -18 9 -18 9 -2 1 10 8 25 16 33 8 9 15 24
15 34 0 10 5 22 10 25 6 3 10 19 10 36 0 18 5 29 14 29 8 0 18 10 22 22 4 13
16 35 27 50 11 14 17 34 14 42 -4 11 -1 16 10 16 8 0 26 11 39 25 13 15 35 25
51 26 15 0 37 4 48 9 13 5 26 3 37 -7 9 -8 21 -12 26 -9z m-5448 -200 c0 -7 8
-18 19 -23 28 -15 44 -64 37 -113 -3 -24 -8 -53 -9 -65 -2 -12 -8 -28 -14 -35
-15 -19 -47 -81 -47 -94 -1 -13 -31 -44 -44 -44 -5 0 -7 -10 -5 -22 3 -16 -7
-35 -32 -62 -19 -22 -35 -48 -35 -57 0 -10 -8 -26 -18 -36 -28 -28 -52 -70
-52 -93 0 -11 -7 -20 -16 -20 -8 0 -12 -5 -9 -11 4 -6 -2 -17 -14 -25 -14 -11
-21 -26 -21 -50 0 -24 -4 -34 -16 -34 -8 0 -12 -4 -9 -10 3 -5 2 -10 -2 -10
-5 0 -15 -16 -22 -35 -7 -19 -16 -35 -21 -35 -12 0 -50 -73 -50 -95 0 -8 -5
-15 -11 -15 -5 0 -7 -4 -4 -10 3 -5 2 -10 -4 -10 -6 0 -8 -6 -5 -14 3 -8 -3
-20 -13 -27 -27 -21 -54 -66 -47 -82 5 -14 -20 -47 -36 -47 -9 0 -21 -34 -24
-68 -1 -13 -8 -27 -15 -31 -8 -5 -10 -14 -7 -20 4 -6 3 -11 -2 -11 -9 0 -29
-94 -24 -112 1 -5 -5 -8 -13 -8 -19 0 -19 -14 0 -30 12 -10 15 -10 15 4 0 9 7
16 16 16 9 0 27 9 41 20 14 11 34 20 45 20 10 0 21 7 25 16 3 8 30 29 59 46
30 16 54 34 54 39 0 5 10 9 21 9 12 0 34 12 48 28 15 15 44 36 66 47 21 11 47
28 58 38 10 10 25 16 34 13 10 -4 17 1 20 15 4 12 11 18 20 15 11 -5 13 -1 7
16 -6 20 -5 21 10 9 14 -11 16 -11 16 1 0 9 12 24 26 34 15 10 36 29 47 42 11
12 27 22 34 22 7 0 13 9 13 21 0 12 8 23 20 26 11 3 20 10 20 17 0 6 12 20 26
31 15 11 37 36 49 55 14 23 43 46 80 65 51 25 70 29 149 31 50 0 94 -3 97 -8
3 -5 19 -11 35 -14 66 -11 110 -37 144 -86 40 -59 63 -74 80 -53 7 8 16 13 20
10 12 -8 33 23 24 36 -4 7 -3 9 4 5 6 -3 13 -2 17 4 4 6 10 8 15 5 4 -3 11 5
15 18 4 12 8 24 9 27 5 14 32 50 37 50 4 0 33 25 66 56 32 30 70 60 85 66 16
5 26 13 24 17 -9 13 60 5 72 -9 9 -10 11 -11 6 -1 -11 21 18 8 30 -14 6 -11
17 -26 25 -34 7 -8 10 -16 5 -18 -5 -2 -9 -25 -8 -53 0 -28 -2 -48 -5 -45 -5
6 -50 -83 -50 -102 -1 -7 -8 -13 -16 -13 -17 0 -36 -32 -32 -52 2 -7 2 -10 0
-6 -7 11 -41 -14 -37 -27 3 -6 -11 -24 -31 -40 -19 -17 -35 -37 -35 -46 0 -9
-7 -19 -15 -23 -8 -3 -15 -13 -15 -21 0 -9 -4 -14 -9 -10 -6 3 -15 -5 -22 -17
-7 -13 -19 -27 -27 -32 -12 -7 -12 -10 -1 -16 9 -6 5 -12 -17 -20 -16 -7 -36
-16 -45 -20 -9 -5 -35 -14 -58 -20 -22 -6 -41 -15 -41 -20 0 -18 -60 -11 -77
9 -9 11 -20 18 -25 15 -4 -3 -8 3 -8 13 0 14 -2 15 -9 4 -5 -8 -18 -12 -29 -9
-16 5 -22 -3 -36 -47 -9 -28 -16 -59 -16 -68 0 -10 -6 -17 -14 -17 -12 0 -11
-9 5 -46 23 -51 96 -129 131 -140 27 -8 79 -50 72 -57 -3 -2 13 -5 35 -5 23 0
46 -4 51 -7 12 -8 137 -19 193 -18 21 1 44 6 51 12 7 6 16 8 20 4 9 -9 98 -4
111 7 6 4 34 10 64 13 30 4 58 12 62 18 4 7 18 14 30 16 13 2 28 8 33 13 6 6
23 10 38 10 15 0 28 3 28 8 0 11 59 42 81 42 11 0 18 4 14 9 -3 6 3 8 15 6 11
-2 22 0 25 4 2 5 37 19 77 31 40 13 77 27 82 32 6 4 18 8 28 8 10 0 18 4 18
10 0 5 11 12 25 16 14 3 31 14 38 24 15 21 55 43 66 36 5 -3 14 1 21 9 7 8 32
25 57 37 25 12 56 33 69 45 13 12 24 17 24 10 1 -7 5 -6 13 4 7 9 24 19 38 22
14 4 31 18 39 32 14 26 71 65 95 65 7 0 15 7 19 15 3 8 12 15 21 15 13 0 14 4
4 21 -7 13 -7 19 -1 15 6 -3 13 3 17 14 3 11 12 20 19 20 6 0 12 9 13 20 1 11
9 27 17 36 9 9 14 19 11 24 -3 5 11 14 30 21 21 8 34 18 31 26 -3 7 1 10 10 6
9 -3 14 1 14 12 0 9 5 13 11 10 5 -4 22 -4 37 0 15 4 21 9 15 13 -6 4 15 7 47
7 54 -1 62 -4 92 -36 70 -74 89 -100 81 -112 -4 -7 -8 -32 -8 -57 -1 -51 -32
-111 -46 -88 -7 10 -9 9 -9 -4 0 -10 -4 -18 -10 -18 -5 0 -6 -7 -3 -17 4 -11
3 -14 -6 -9 -7 5 -26 -3 -46 -18 -18 -14 -38 -26 -44 -26 -6 0 -11 -7 -11 -16
0 -8 -4 -13 -9 -10 -5 3 -11 -1 -14 -9 -3 -7 -22 -17 -41 -21 -20 -3 -34 -10
-31 -14 2 -4 -9 -18 -27 -31 -17 -13 -41 -40 -54 -59 -19 -27 -24 -31 -24 -15
-1 18 -2 18 -10 3 -6 -9 -32 -27 -58 -40 -26 -13 -49 -25 -52 -28 -3 -3 -23
-14 -45 -25 -22 -11 -44 -25 -50 -31 -20 -22 -75 -55 -115 -69 -23 -8 -49 -24
-58 -35 -10 -11 -34 -22 -54 -24 -21 -3 -45 -12 -54 -20 -8 -9 -26 -19 -40
-22 -13 -3 -24 -10 -24 -14 0 -13 -95 -70 -116 -70 -10 0 -64 -18 -119 -40
-55 -23 -109 -39 -121 -38 -12 2 -27 -2 -35 -8 -14 -11 -97 -35 -194 -56 -27
-7 -72 -11 -98 -11 -33 0 -44 -3 -35 -9 9 -7 6 -8 -10 -5 -13 3 -48 -1 -78 -9
-40 -10 -66 -11 -97 -5 -29 7 -44 7 -48 -1 -4 -7 -14 -8 -25 -3 -11 5 -37 9
-59 10 -22 1 -51 7 -64 14 -13 8 -38 11 -57 8 -19 -3 -34 -2 -34 2 0 4 -18 14
-40 21 -22 7 -40 17 -40 21 0 5 -7 6 -15 3 -8 -4 -15 -2 -15 2 0 5 -14 15 -31
23 -27 12 -33 12 -40 0 -7 -12 -9 -12 -9 0 0 8 -6 11 -16 7 -10 -4 -14 -1 -12
6 6 18 -16 38 -41 38 -12 0 -21 4 -21 9 0 5 -9 13 -20 16 -11 3 -20 13 -20 22
0 8 -6 13 -12 11 -7 -3 -18 5 -24 16 -6 12 -16 20 -22 19 -14 -3 -55 64 -47
77 3 6 -1 17 -9 25 -8 9 -13 22 -10 30 4 9 0 15 -8 15 -8 0 -16 6 -17 13 -1 6
-3 23 -5 37 -2 14 -8 36 -13 50 -7 18 -7 27 1 32 7 5 6 8 -4 8 -13 0 -13 1 0
10 11 7 9 11 -13 19 -15 6 -27 15 -27 21 0 6 -9 6 -25 0 -14 -5 -25 -7 -25 -4
0 3 -13 -3 -30 -13 -16 -9 -30 -21 -30 -25 0 -4 -7 -8 -15 -8 -8 0 -15 -5 -15
-11 0 -5 -4 -8 -10 -4 -12 7 -50 -25 -50 -43 0 -9 -7 -11 -20 -7 -18 6 -79
-27 -88 -47 -2 -5 -10 -8 -17 -8 -7 0 -15 -4 -17 -8 -4 -11 -97 -62 -112 -62
-15 0 -66 -48 -66 -61 0 -6 -7 -9 -14 -6 -9 4 -17 -1 -21 -12 -3 -9 -21 -24
-41 -31 -25 -10 -34 -19 -31 -32 4 -14 0 -16 -26 -11 -21 4 -28 3 -23 -5 4 -7
1 -12 -9 -12 -11 0 -15 -5 -11 -15 4 -11 -3 -15 -27 -16 -18 -1 -35 -1 -39 0
-3 0 -17 -11 -30 -24 -13 -14 -33 -25 -45 -25 -13 0 -23 -4 -23 -10 0 -5 -11
-10 -24 -10 -13 0 -29 -6 -35 -13 -15 -19 -108 -21 -118 -3 -4 8 -23 16 -41
18 -25 2 -38 11 -50 33 -9 17 -23 34 -30 38 -7 5 -10 12 -7 17 3 4 -1 20 -9
35 -10 19 -12 35 -5 54 4 14 10 40 12 56 3 17 9 29 14 28 6 -1 13 16 16 38 3
22 13 46 22 53 9 6 18 27 19 46 2 19 4 44 5 55 1 16 3 17 11 5 7 -12 12 -8 23
20 8 19 13 39 10 46 -2 7 0 15 6 19 6 3 11 -2 12 -12 0 -10 6 3 13 30 7 26 21
56 30 66 10 11 15 25 11 30 -3 6 -2 11 3 11 5 0 13 23 16 52 6 44 35 111 36
83 1 -6 9 6 18 25 35 68 57 105 75 120 10 8 20 24 22 35 2 11 4 20 5 20 1 0 3
9 5 19 2 10 9 22 15 26 9 6 9 9 1 15 -9 5 -9 10 0 21 6 7 15 11 20 8 5 -3 13
6 19 20 5 14 15 26 21 26 8 0 8 4 -1 15 -10 12 -9 16 4 21 9 3 15 11 14 18 -3
13 21 58 36 68 6 4 11 13 12 20 3 34 5 39 15 32 15 -9 29 14 29 49 0 15 4 27
9 27 5 0 12 14 16 30 7 31 19 39 29 18 3 -7 4 0 2 16 -3 21 1 30 15 33 11 3
19 14 19 24 0 18 4 28 32 82 31 59 38 76 54 132 10 33 17 66 16 73 -2 6 2 12
8 12 5 0 10 7 10 15 0 8 5 15 11 15 16 0 36 24 32 37 -3 7 3 9 16 6 15 -4 21
-1 21 11 0 13 11 16 60 15 34 -1 63 1 66 4 10 9 54 -15 54 -29z m-3580 -218
c0 -8 9 -18 21 -21 17 -6 18 -9 7 -23 -11 -13 -11 -15 3 -10 31 12 9 -91 -25
-114 -8 -6 -6 -11 4 -18 13 -8 13 -10 -2 -10 -10 0 -22 -14 -29 -35 -7 -19
-19 -35 -26 -35 -7 0 -16 -12 -19 -27 -4 -16 -14 -36 -22 -46 -13 -15 -14 -20
-3 -26 9 -6 10 -11 2 -15 -6 -4 -11 -16 -11 -27 0 -17 -10 -23 -31 -21 -3 1
-4 -10 -1 -23 2 -15 0 -25 -7 -25 -7 0 -10 -4 -7 -9 3 -5 -3 -19 -13 -32 -10
-13 -19 -28 -20 -34 -6 -35 -15 -54 -26 -59 -8 -3 -11 -13 -8 -24 3 -12 -2
-22 -12 -26 -12 -4 -15 -13 -11 -31 5 -18 2 -25 -8 -25 -8 0 -22 -20 -32 -44
-10 -24 -22 -42 -26 -40 -4 3 -10 -12 -14 -33 -8 -44 -17 -65 -40 -87 -8 -9
-17 -34 -19 -57 -4 -47 -12 -60 -25 -40 -5 9 -12 -4 -20 -42 -8 -40 -21 -66
-41 -87 -17 -16 -28 -34 -24 -40 3 -5 1 -10 -4 -10 -6 0 -11 -7 -11 -16 0 -8
-4 -13 -8 -10 -4 2 -6 -11 -4 -30 3 -25 1 -34 -9 -32 -8 2 -15 -7 -17 -20 -2
-13 -8 -20 -14 -16 -7 5 -9 0 -6 -14 4 -12 2 -22 -4 -22 -5 0 -6 -4 -3 -10 3
-5 1 -10 -4 -10 -6 0 -11 -13 -11 -29 0 -17 -5 -33 -10 -36 -6 -4 -10 -14 -9
-23 3 -31 -1 -42 -13 -39 -7 1 -12 -4 -10 -11 1 -8 -2 -11 -8 -7 -5 3 -20 -5
-32 -18 -37 -39 -65 -50 -99 -38 -18 6 -29 6 -29 0 0 -5 -5 -9 -11 -9 -5 0 -8
4 -5 9 3 5 -7 14 -24 21 -35 14 -57 45 -75 106 -12 40 -11 46 6 68 11 14 19
40 19 64 0 25 8 49 21 66 11 14 17 26 12 26 -4 0 -3 4 2 8 18 13 38 60 33 80
-4 15 -1 18 20 14 19 -4 23 -2 17 8 -5 8 -2 18 6 24 17 13 49 80 49 102 0 8 7
17 15 20 10 4 13 13 10 25 -4 11 -2 19 4 19 6 0 11 11 11 24 0 16 7 27 21 31
11 4 18 12 16 18 -2 6 7 22 20 35 28 27 29 39 6 45 -14 4 -12 5 5 6 15 1 22 7
22 20 0 11 5 23 11 26 6 4 8 13 5 21 -3 8 1 14 9 14 7 0 21 22 30 50 9 28 21
50 27 50 6 0 8 3 5 7 -4 3 0 14 8 23 9 10 15 21 14 26 -1 5 3 22 9 37 7 16 12
32 12 36 0 3 17 26 39 51 23 26 36 50 34 61 -3 10 5 26 20 39 14 12 23 29 20
36 -4 10 0 12 11 8 12 -5 15 -2 10 10 -4 11 -1 16 10 16 9 0 16 7 16 15 0 8 5
15 10 15 6 0 10 8 10 18 0 10 7 27 15 39 8 12 12 29 8 39 -4 11 -3 15 4 11 6
-4 21 9 34 28 14 20 30 33 38 30 9 -3 11 0 7 10 -4 10 1 15 14 15 11 0 20 4
20 8 0 4 26 9 57 10 31 1 59 5 62 7 9 10 21 5 21 -9z m510 -197 c0 -14 40 -10
41 4 0 10 2 10 6 0 2 -7 16 -13 29 -13 13 0 24 -5 24 -11 0 -6 6 -9 14 -6 9 4
14 -2 13 -16 0 -12 3 -46 7 -76 6 -47 5 -53 -9 -47 -13 4 -15 1 -10 -13 7 -22
-3 -71 -15 -71 -8 0 -90 -77 -90 -84 0 -3 -12 -18 -27 -34 -36 -37 -63 -74
-63 -84 0 -5 -11 -13 -25 -18 -14 -5 -25 -16 -25 -23 0 -8 -11 -20 -25 -27
-15 -8 -23 -20 -20 -27 2 -8 1 -11 -5 -8 -5 3 -14 -3 -19 -14 -6 -10 -29 -38
-51 -61 -22 -23 -40 -48 -40 -55 0 -8 -9 -17 -21 -20 -11 -4 -18 -12 -16 -18
3 -11 -33 -47 -48 -47 -20 0 -64 -72 -47 -78 5 -1 8 -12 5 -22 -3 -11 0 -20 6
-20 6 0 11 4 11 9 0 10 71 8 88 -3 6 -3 14 -2 17 4 4 6 25 10 46 8 22 -1 43 2
47 8 7 9 11 10 50 17 40 8 109 30 135 44 15 8 34 12 41 10 8 -3 17 -2 22 3 5
4 27 13 49 20 22 7 54 20 70 30 17 10 55 23 85 30 30 6 70 19 89 28 19 10 39
17 45 17 19 1 76 30 76 39 0 11 43 56 54 56 4 0 24 14 44 31 27 24 41 30 63
25 16 -3 31 -1 35 5 7 12 118 10 154 -3 25 -9 79 -64 81 -83 2 -21 -2 -142 -6
-188 -4 -49 -4 -49 23 -42 15 3 59 23 97 42 39 20 80 41 92 47 13 6 23 14 23
19 0 4 9 7 20 7 11 0 20 4 20 10 0 5 7 7 15 4 8 -4 15 -2 15 4 0 6 14 13 30
17 17 4 47 22 67 41 19 19 42 34 49 34 7 0 16 5 19 11 4 6 13 8 21 5 18 -7 44
3 44 18 1 6 10 22 20 35 16 18 23 21 34 12 10 -8 17 -6 31 10 11 11 34 27 52
36 18 8 33 22 33 29 0 8 14 17 31 21 21 4 26 8 18 14 -10 6 -5 11 16 19 22 8
30 8 37 -2 6 -11 8 -10 8 0 0 15 24 42 37 42 5 0 19 11 31 25 12 14 29 25 37
25 13 0 16 7 15 35 -1 10 51 57 57 52 3 -4 12 0 20 8 34 35 243 15 243 -22 0
-7 4 -13 9 -13 5 0 14 -12 19 -27 5 -16 13 -37 18 -47 4 -12 4 -17 -2 -13 -6
3 -9 -20 -9 -56 1 -75 -10 -114 -37 -128 -10 -6 -23 -21 -28 -35 -5 -13 -17
-24 -25 -24 -9 0 -13 -4 -10 -10 6 -10 -42 -90 -55 -90 -4 0 -11 -15 -16 -32
-5 -18 -19 -37 -31 -43 -31 -16 -76 -72 -61 -77 8 -3 4 -12 -10 -26 -12 -12
-22 -29 -22 -37 0 -9 -7 -18 -15 -21 -8 -4 -15 -12 -15 -20 0 -8 -6 -14 -13
-14 -8 0 -20 -12 -28 -27 -8 -16 -22 -37 -31 -47 -10 -11 -18 -23 -18 -28 0
-9 -19 -33 -72 -89 -21 -22 -38 -49 -38 -59 0 -13 -5 -18 -15 -14 -9 4 -15 0
-15 -9 0 -8 -11 -31 -25 -51 -14 -20 -25 -43 -25 -51 0 -8 -7 -15 -16 -15 -8
0 -13 -4 -10 -9 3 -5 -9 -20 -27 -35 -24 -20 -29 -29 -18 -35 10 -7 9 -11 -7
-22 -10 -8 -29 -34 -42 -59 -12 -24 -33 -53 -46 -63 -23 -17 -24 -24 -22 -103
2 -46 0 -85 -4 -87 -4 -1 -9 -12 -11 -24 -3 -23 -47 -77 -55 -68 -3 2 -14 -1
-26 -7 -11 -7 -31 -11 -43 -9 -12 1 -26 -5 -32 -16 -6 -10 -11 -12 -11 -5 0 6
-5 12 -12 12 -6 0 -9 -3 -5 -6 7 -8 -22 -39 -45 -47 -10 -4 -18 -13 -18 -22 0
-8 -4 -15 -10 -15 -5 0 -20 -21 -33 -46 -13 -25 -26 -45 -30 -45 -25 4 -35 -1
-33 -16 2 -9 -12 -32 -30 -50 -24 -24 -29 -33 -17 -33 17 0 11 -8 -39 -58 -10
-9 -18 -22 -18 -29 0 -7 -5 -13 -11 -13 -5 0 -8 -3 -5 -8 6 -10 -15 -37 -41
-51 -13 -6 -35 -37 -50 -67 -15 -31 -33 -58 -40 -61 -7 -3 -24 -25 -38 -49
-14 -24 -34 -48 -45 -54 -11 -6 -20 -16 -20 -23 0 -7 -18 -32 -40 -56 -22 -25
-40 -50 -40 -58 0 -14 -16 -18 -23 -5 -2 4 -2 2 -1 -5 2 -7 -11 -23 -27 -37
-17 -14 -27 -30 -24 -36 3 -5 2 -10 -4 -10 -6 0 -20 -20 -31 -45 -15 -32 -26
-45 -41 -45 -15 0 -19 -5 -15 -15 3 -9 -1 -18 -9 -21 -18 -7 -67 -93 -59 -105
3 -5 -2 -9 -10 -9 -9 0 -16 -7 -16 -15 0 -9 -11 -21 -25 -27 -16 -7 -24 -17
-20 -26 3 -8 -3 -22 -13 -31 -10 -9 -25 -37 -33 -64 -9 -31 -18 -46 -26 -43
-11 5 -18 -13 -14 -37 2 -10 -25 -38 -31 -32 -2 2 -5 -7 -6 -21 -1 -13 -16
-38 -32 -54 -17 -17 -28 -35 -25 -40 3 -6 0 -10 -7 -10 -7 0 -19 -9 -26 -20
-7 -11 -23 -20 -36 -20 -13 0 -29 -7 -36 -15 -7 -8 -24 -15 -39 -15 -25 0
-130 46 -142 63 -3 5 -9 1 -13 -8 -3 -9 -11 -13 -17 -10 -5 4 -19 -1 -30 -11
-10 -9 -22 -15 -25 -11 -3 3 -25 0 -49 -8 -33 -10 -42 -10 -39 0 3 8 -4 10
-25 7 -24 -3 -37 2 -62 27 -17 17 -35 29 -40 26 -5 -4 -6 1 -3 9 3 8 -2 26
-11 40 -14 21 -15 31 -5 60 6 20 9 40 6 45 -3 5 1 14 9 21 8 7 15 19 15 26 0
16 35 54 65 70 11 6 19 16 17 24 -2 7 4 20 13 30 8 9 12 20 8 23 -3 4 -1 7 5
7 5 0 12 -6 15 -12 2 -7 6 2 9 19 2 18 1 33 -4 33 -9 0 12 41 26 51 5 4 5 12
1 19 -7 12 23 52 35 45 4 -2 6 9 5 25 -1 23 3 30 16 30 22 0 34 16 17 24 -10
3 -8 9 6 20 10 8 15 19 11 25 -3 7 0 8 9 5 11 -4 18 5 26 35 6 23 15 41 21 41
5 0 15 14 21 30 5 17 19 35 29 41 10 5 19 15 19 23 0 7 13 27 28 44 16 18 40
53 53 78 13 26 29 49 37 52 8 2 17 13 20 23 10 24 92 118 185 211 42 42 77 82
77 88 0 5 7 10 15 10 8 0 15 6 15 14 0 9 12 16 28 18 15 2 27 8 27 14 0 16 87
104 103 104 7 0 15 7 18 15 4 8 14 15 24 15 10 0 20 4 22 9 6 17 109 92 129
94 10 1 19 5 19 10 0 11 47 57 59 57 6 0 14 6 18 14 4 7 27 23 50 35 23 11 45
25 48 31 4 6 11 8 16 5 5 -4 9 2 9 13 0 14 13 24 48 36 26 10 55 21 64 27 10
5 27 9 38 9 13 0 18 5 13 16 -4 11 -1 15 13 12 16 -2 19 3 17 27 -2 23 0 26 7
15 9 -13 11 -13 20 0 5 8 8 21 5 29 -4 9 0 11 10 7 9 -3 15 0 15 9 0 19 18 50
47 83 13 13 28 40 35 58 7 19 17 34 23 34 14 0 35 57 28 76 -3 9 2 14 16 14
12 0 22 6 22 13 1 6 2 24 3 39 1 15 13 39 26 53 13 14 20 25 15 25 -4 0 -1 8
8 18 18 20 13 58 -9 66 -8 3 -14 1 -14 -5 0 -6 -8 -9 -17 -8 -10 1 -26 -1 -35
-6 -10 -4 -24 -5 -32 -2 -8 3 -20 -1 -26 -8 -7 -8 -16 -12 -21 -9 -5 3 -9 0
-9 -5 0 -6 -9 -11 -20 -11 -11 0 -20 -4 -20 -10 0 -5 -7 -10 -15 -10 -8 0 -15
-4 -15 -10 0 -5 -7 -10 -15 -10 -9 0 -29 -13 -45 -30 -16 -16 -35 -30 -43 -30
-7 0 -20 -11 -27 -25 -7 -14 -22 -25 -32 -25 -11 0 -16 -4 -13 -10 3 -5 0 -7
-8 -5 -7 3 -29 -9 -48 -28 -19 -18 -40 -32 -47 -29 -18 6 -64 -27 -56 -40 5
-7 2 -8 -5 -3 -8 4 -25 -1 -41 -14 -20 -14 -30 -17 -33 -8 -3 7 -6 5 -6 -5 -1
-11 -9 -18 -20 -18 -11 0 -43 -12 -71 -27 -77 -41 -88 -48 -110 -68 -21 -19
-38 -22 -172 -26 -61 -2 -82 1 -96 14 -10 9 -23 17 -29 17 -5 0 -24 27 -42 60
-33 64 -39 127 -18 180 12 32 15 70 5 70 -4 0 -8 7 -8 15 0 8 -9 19 -19 25
-27 14 -34 13 -27 -5 3 -8 0 -15 -7 -16 -72 -4 -94 -3 -90 5 3 4 -5 5 -18 1
-13 -4 -27 -12 -30 -18 -4 -5 -12 -6 -18 -3 -6 4 -11 3 -11 -2 0 -13 -54 -25
-118 -26 -41 -1 -57 -6 -68 -20 -8 -11 -14 -15 -14 -9 0 13 -72 6 -81 -8 -3
-5 -13 -7 -22 -3 -9 3 -17 2 -17 -2 0 -13 -191 -9 -223 4 -21 9 -26 9 -21 0 5
-8 0 -9 -17 -4 -13 4 -37 9 -53 12 -26 5 -119 84 -99 84 4 0 2 4 -6 9 -17 11
-22 177 -6 189 6 4 19 25 30 47 11 22 26 44 33 48 6 4 12 15 12 22 0 8 4 15 9
15 5 0 8 8 7 18 0 9 5 16 12 15 6 -2 12 3 12 11 0 7 9 24 19 38 11 14 21 31
23 39 2 7 13 25 26 39 73 81 114 120 122 115 5 -3 12 10 16 30 3 19 10 33 14
30 10 -6 60 56 60 73 0 7 7 12 15 12 9 0 18 7 21 15 4 8 12 15 20 15 8 0 14 5
14 10 0 6 7 10 15 10 8 0 12 6 9 13 -5 13 37 67 53 67 15 1 53 38 53 52 0 8 6
20 13 27 10 11 9 12 -2 6 -9 -5 -12 -4 -7 3 3 5 0 13 -6 16 -7 3 -3 3 9 0 18
-4 22 -2 17 10 -5 12 -2 15 12 9 12 -4 15 -3 10 5 -4 7 -1 12 8 12 9 0 16 5
16 10 0 6 7 10 15 10 9 0 18 7 21 15 4 8 14 15 24 15 11 0 21 3 23 8 7 10 67
11 67 1z m18317 -244 c23 -22 40 -42 37 -44 -2 -2 1 -10 7 -18 9 -9 8 -13 0
-13 -6 0 -11 -7 -11 -15 0 -8 4 -15 8 -15 9 0 8 -22 -3 -57 -4 -13 -11 -20
-16 -17 -5 3 -14 -8 -20 -25 -6 -16 -21 -37 -35 -46 -13 -8 -24 -22 -24 -30 0
-8 -4 -15 -9 -15 -7 0 -19 -25 -25 -52 0 -3 -17 -23 -36 -44 -19 -22 -35 -42
-35 -45 0 -13 -39 -57 -47 -53 -7 5 -12 -18 -9 -39 0 -4 -2 -6 -6 -6 -22 4
-33 -3 -34 -18 0 -10 -3 -13 -5 -7 -6 16 -44 5 -44 -12 0 -17 -79 -10 -120 11
-52 27 -81 127 -41 140 12 4 18 12 14 21 -3 7 0 14 6 14 6 0 10 3 9 8 -4 15
33 86 52 99 11 8 20 20 20 28 0 7 4 15 9 17 5 2 11 17 13 33 2 17 11 37 20 46
9 8 19 28 22 44 3 15 14 37 24 49 11 12 22 29 25 39 4 9 15 17 25 17 10 0 23
5 29 11 26 26 61 38 108 36 43 -2 55 -7 92 -42z m-4531 -66 c3 -6 15 -9 25 -6
11 3 19 0 19 -7 0 -6 11 -23 24 -37 20 -22 23 -34 21 -92 -1 -37 -7 -72 -13
-79 -6 -7 -11 -17 -12 -23 -1 -5 -6 -20 -11 -33 -5 -13 -12 -34 -15 -47 -3
-13 -12 -29 -20 -36 -8 -6 -14 -20 -14 -31 0 -12 -5 -18 -12 -15 -8 3 -14 -5
-15 -22 0 -14 -11 -32 -22 -40 -12 -7 -21 -21 -21 -31 0 -10 -7 -20 -15 -24
-8 -3 -15 -17 -15 -31 0 -25 -20 -37 -20 -12 0 6 -6 3 -12 -8 -7 -11 -18 -26
-25 -33 -7 -7 -13 -18 -13 -23 0 -6 -3 -8 -7 -6 -5 3 -38 2 -75 -2 -48 -5 -71
-3 -84 6 -10 7 -26 13 -36 13 -10 0 -21 7 -24 15 -3 8 -15 17 -25 20 -13 5
-18 12 -14 24 3 10 1 30 -4 44 -6 15 -6 29 -2 32 5 2 12 17 16 32 3 16 22 42
41 59 19 18 34 41 34 53 0 11 5 21 10 21 6 0 10 6 10 14 0 7 9 25 20 39 11 14
20 33 20 42 0 9 5 13 10 10 6 -3 10 3 10 15 0 11 7 23 15 26 8 3 19 23 25 44
13 49 79 115 128 128 51 14 90 14 98 1z m-6557 -41 c17 6 33 7 36 3 2 -5 17
-11 32 -15 42 -9 73 -40 94 -96 10 -27 16 -50 11 -50 -4 0 -7 -26 -6 -57 1
-68 -9 -109 -25 -105 -6 1 -11 -2 -11 -7 0 -5 -13 -14 -30 -20 -16 -5 -30 -17
-30 -25 0 -9 -6 -13 -13 -10 -7 2 -37 -14 -67 -36 -29 -22 -69 -45 -87 -52
-18 -7 -35 -20 -39 -30 -3 -10 -10 -18 -15 -18 -5 0 -9 -9 -9 -20 0 -11 -4
-20 -8 -20 -5 0 -15 -11 -22 -25 -7 -14 -19 -25 -27 -25 -7 0 -18 -11 -23 -24
-5 -13 -23 -32 -39 -42 -17 -10 -31 -21 -31 -24 0 -3 -14 -20 -30 -39 -17 -18
-32 -38 -33 -44 -1 -6 -18 -29 -37 -50 -19 -22 -34 -43 -33 -48 2 -4 -4 -6
-12 -3 -11 5 -13 2 -8 -12 5 -14 3 -16 -11 -11 -10 4 -19 1 -22 -8 -4 -8 -14
-15 -24 -15 -10 0 -21 -7 -24 -16 -3 -8 -10 -12 -16 -9 -5 3 -10 -2 -10 -11 0
-10 -3 -14 -7 -11 -4 4 -12 -6 -19 -23 -7 -17 -21 -33 -31 -36 -36 -11 -108
-48 -115 -58 -5 -7 -8 -6 -8 3 0 11 -3 11 -15 1 -13 -11 -51 -14 -133 -11 -25
1 -44 12 -78 45 -39 38 -45 50 -46 90 -2 32 -6 45 -15 42 -9 -4 -10 1 -3 20
10 25 13 80 3 57 -12 -32 -18 -5 -19 87 0 57 3 100 9 100 5 0 8 30 5 70 -2 39
-1 70 3 70 4 0 7 44 8 97 1 53 6 102 11 108 6 7 7 15 4 18 -3 3 -2 12 2 19 5
7 9 31 9 54 0 25 7 48 18 58 9 10 17 22 17 28 0 13 49 56 73 64 9 3 17 10 17
15 0 5 15 9 34 9 19 0 38 5 41 10 4 7 14 3 25 -10 9 -11 21 -20 26 -20 5 0 16
-9 24 -20 8 -11 19 -20 25 -20 14 0 37 -39 29 -51 -3 -5 -3 -18 1 -27 10 -27
15 -132 6 -132 -11 0 -32 -113 -30 -155 1 -16 -3 -51 -8 -77 -6 -27 -6 -48 -2
-48 5 0 9 -7 9 -15 0 -8 9 -15 20 -15 11 0 20 4 20 9 0 4 15 22 33 40 47 47
60 57 80 64 10 4 15 11 12 17 -3 5 -1 10 5 10 6 0 16 11 22 25 6 15 17 24 25
21 7 -3 21 6 30 20 10 13 26 34 35 45 10 12 16 25 13 29 -4 6 30 45 84 94 12
11 21 27 21 35 0 9 15 23 33 32 17 9 31 22 30 28 -2 6 2 11 8 11 5 0 7 5 3 12
-4 6 -3 8 4 4 5 -3 42 25 81 63 74 73 92 84 102 68 5 -6 18 -6 38 1z m10470
-33 c13 -14 29 -25 36 -25 19 0 58 -132 42 -142 -9 -6 -9 -8 1 -8 14 0 7 -45
-10 -67 -5 -7 -6 -18 -2 -24 4 -8 3 -9 -5 -5 -7 5 -16 -4 -23 -26 -7 -18 -11
-36 -10 -40 1 -5 -3 -7 -9 -5 -6 1 -13 -9 -15 -22 -3 -14 -9 -30 -14 -36 -21
-25 -31 -193 -11 -180 8 4 26 -50 22 -68 -1 -4 6 -10 14 -13 8 -4 15 -12 15
-20 0 -8 8 -14 18 -14 26 -1 104 -39 98 -48 -3 -5 6 -7 19 -4 16 3 27 -1 30
-10 4 -10 19 -13 48 -12 23 1 47 -2 52 -6 6 -5 22 -10 35 -12 14 -2 30 -6 35
-10 12 -7 174 -4 195 5 8 3 29 6 45 6 39 -1 194 34 269 60 33 12 67 21 77 21
10 0 30 5 46 11 15 6 41 13 57 14 16 2 32 8 36 15 5 8 17 10 30 7 12 -3 19 -3
16 0 -6 7 78 53 102 57 7 1 12 6 12 10 -1 5 21 19 48 31 27 13 53 28 56 34 4
6 16 11 26 11 10 0 40 11 66 25 26 14 54 25 64 25 9 0 26 9 38 21 12 11 27 17
34 13 6 -4 8 -3 4 4 -3 6 5 19 20 29 40 28 84 69 84 79 0 15 35 41 73 55 19 7
33 18 31 24 -3 6 11 20 31 30 19 11 35 23 35 28 0 4 4 6 9 2 5 -3 12 -1 16 5
3 5 19 10 35 10 16 0 32 5 35 10 3 6 28 10 55 10 27 0 52 5 55 10 8 13 61 13
87 -1 15 -8 19 -8 14 0 -11 17 3 13 35 -10 16 -11 33 -18 38 -15 5 3 16 -5 25
-18 32 -50 89 -40 155 28 19 19 38 33 42 30 4 -2 11 2 16 9 21 35 221 69 231
39 1 -5 12 -8 23 -5 15 4 18 2 12 -13 -5 -13 -3 -16 10 -11 11 4 17 1 17 -8 0
-7 8 -16 18 -19 9 -3 29 -17 45 -31 15 -15 31 -23 36 -20 5 3 12 1 16 -5 3 -5
1 -10 -6 -10 -8 0 -6 -6 4 -18 10 -10 17 -24 17 -30 0 -7 4 -12 8 -12 9 0 11
-9 15 -55 2 -23 27 -37 27 -15 0 6 5 10 11 10 6 0 7 -6 2 -12 -11 -18 -4 -68
13 -94 8 -12 17 -34 20 -49 3 -15 12 -34 20 -43 9 -8 14 -25 11 -38 -2 -13 1
-25 8 -28 8 -3 10 -15 7 -32 -4 -22 -2 -26 11 -21 10 4 20 0 25 -9 9 -17 88
-28 97 -14 4 6 14 10 24 10 10 0 33 10 52 23 19 12 48 24 65 25 42 3 99 27
125 53 11 11 24 17 29 14 6 -4 10 1 10 10 0 9 4 14 9 11 5 -3 12 1 15 10 3 8
10 13 15 10 5 -4 11 -3 13 1 4 9 65 53 73 53 3 0 20 15 38 33 35 34 88 60 123
59 14 0 21 6 20 17 0 9 5 15 12 14 6 -2 12 2 12 7 0 6 7 10 15 10 8 0 17 11
21 25 3 14 13 25 20 25 15 0 35 39 27 53 -8 14 8 47 24 47 9 0 13 3 10 6 -3 4
-2 15 4 26 36 67 215 53 233 -17 5 -19 11 -25 24 -21 15 5 18 -3 20 -63 4 -76
-13 -115 -77 -176 -17 -16 -31 -34 -31 -40 0 -5 -12 -19 -25 -30 -14 -11 -35
-29 -46 -40 -11 -11 -23 -20 -27 -20 -4 -1 -26 -20 -48 -43 -23 -23 -51 -42
-62 -42 -12 0 -22 -8 -24 -17 -2 -11 -12 -18 -27 -18 -17 0 -29 -9 -40 -32
-12 -24 -26 -36 -53 -43 -21 -6 -50 -22 -64 -35 -15 -14 -33 -25 -40 -25 -7 0
-14 -5 -16 -12 -2 -6 -15 -12 -29 -13 -13 -1 -23 -8 -22 -14 2 -6 0 -10 -5 -9
-14 3 -67 -27 -89 -52 -12 -14 -23 -19 -23 -12 0 8 -13 4 -37 -13 -21 -14 -46
-25 -56 -25 -10 0 -15 -4 -12 -10 3 -5 -3 -10 -15 -10 -12 0 -40 -10 -63 -23
-51 -29 -133 -57 -141 -50 -3 4 -32 8 -63 10 -32 2 -73 8 -91 13 -19 5 -40 6
-48 3 -8 -3 -14 0 -14 5 0 6 -16 16 -34 23 -19 7 -33 16 -31 20 3 3 -5 18 -18
31 -27 30 -47 64 -47 79 0 6 -13 30 -30 54 -16 23 -34 62 -39 85 -5 24 -13 46
-18 49 -13 10 -43 68 -43 84 0 8 -9 37 -21 65 -20 49 -22 50 -59 49 -21 -1
-36 -5 -34 -9 2 -3 -10 -11 -27 -17 -19 -7 -28 -15 -23 -22 4 -8 3 -9 -4 -5
-7 4 -29 -10 -53 -33 -22 -23 -45 -41 -50 -41 -11 0 -79 -68 -79 -80 0 -4 -17
-25 -37 -47 -70 -73 -111 -138 -65 -102 15 13 16 12 4 -2 -8 -10 -21 -15 -33
-12 -11 3 -19 2 -18 -3 4 -17 -21 -65 -31 -59 -5 3 -7 0 -4 -9 9 -24 -30 -98
-74 -142 -23 -23 -42 -44 -42 -48 0 -10 -30 -39 -30 -29 0 4 -5 1 -10 -7 -8
-12 -10 -12 -10 -1 0 8 -7 11 -20 8 -11 -3 -22 -2 -25 3 -2 4 -22 10 -44 14
-21 3 -41 12 -44 20 -4 9 -15 13 -28 11 -12 -2 -19 -2 -15 2 9 9 -14 33 -33
33 -12 0 -21 14 -28 48 -23 95 -24 104 -13 97 10 -6 14 11 10 53 -1 12 6 25
14 28 9 3 16 14 16 24 0 10 7 25 15 34 8 8 15 24 15 36 0 12 4 19 9 15 5 -3
13 4 16 16 5 14 2 25 -6 30 -21 13 -29 11 -29 -7 0 -8 -5 -12 -10 -9 -6 3 -17
-1 -26 -9 -8 -9 -24 -16 -35 -16 -11 0 -22 -6 -25 -14 -3 -8 -11 -13 -18 -10
-7 3 -19 -2 -26 -11 -7 -8 -17 -15 -23 -15 -18 0 -87 -33 -87 -42 0 -4 -7 -8
-16 -8 -8 0 -12 -4 -9 -10 4 -6 -7 -10 -25 -10 -18 0 -29 -4 -25 -10 3 -5 -3
-10 -13 -10 -11 0 -23 -7 -26 -16 -3 -9 -12 -14 -18 -12 -7 3 -19 -1 -26 -9
-7 -7 -31 -13 -53 -13 -21 0 -39 -4 -39 -9 0 -4 12 -6 28 -4 23 4 24 3 9 -7
-9 -6 -26 -8 -37 -5 -12 4 -20 2 -20 -5 0 -7 -7 -10 -15 -6 -8 3 -15 1 -15 -4
0 -8 -30 -22 -55 -26 -5 -1 -12 -3 -15 -4 -3 -1 -14 -3 -25 -5 -65 -11 -169
-43 -173 -53 -2 -7 -17 -12 -33 -12 -17 0 -32 -6 -35 -14 -4 -10 -12 -12 -27
-7 -14 5 -44 1 -88 -14 -42 -15 -94 -23 -140 -24 -41 -1 -114 -3 -162 -5 -49
-2 -107 1 -130 5 -23 5 -68 11 -100 14 -62 6 -167 37 -204 61 -12 8 -32 14
-43 14 -24 0 -108 42 -136 68 -10 10 -35 25 -54 34 -38 18 -57 38 -79 80 -8
15 -22 36 -32 47 -10 10 -15 21 -12 24 3 3 1 12 -3 19 -5 7 -10 24 -12 38 -2
14 -7 29 -13 34 -5 6 -9 18 -9 28 0 10 -4 18 -10 18 -13 0 -13 117 -1 125 5 3
8 18 7 33 -2 15 5 39 15 54 11 14 19 29 19 33 0 4 9 26 19 49 11 23 22 54 26
69 3 15 9 25 14 23 5 -3 14 15 21 39 7 25 17 48 22 51 4 3 6 10 2 15 -3 6 5
21 18 34 12 13 31 34 41 47 15 18 29 23 70 25 28 0 53 6 55 12 5 16 15 13 41
-14z m8121 -549 c0 -33 -25 -53 -45 -36 -21 18 -19 35 8 48 33 16 37 14 37
-12z"/>
<path d="M25036 4821 c-4 -6 -2 -11 5 -11 33 0 -6 -13 -48 -16 -34 -2 -53 -9
-65 -23 -9 -12 -20 -21 -25 -21 -5 0 -15 -10 -23 -22 -8 -12 -23 -30 -33 -40
-10 -11 -16 -26 -13 -34 3 -9 1 -12 -4 -9 -6 3 -10 2 -10 -4 0 -14 -65 -81
-79 -81 -6 0 -11 -9 -11 -20 0 -11 -6 -23 -14 -26 -8 -3 -13 -16 -11 -30 1
-13 -2 -24 -6 -24 -5 0 -9 -5 -9 -11 0 -6 -9 -24 -21 -40 -14 -20 -19 -38 -15
-53 4 -18 0 -28 -19 -40 -14 -9 -23 -21 -20 -26 3 -4 -1 -15 -9 -22 -9 -10
-11 -20 -4 -31 6 -11 5 -17 -2 -17 -14 0 -13 -23 4 -45 15 -21 18 -19 82 43
19 18 39 30 44 27 6 -3 7 1 4 9 -3 9 -2 16 4 16 6 0 21 23 35 50 27 54 80 120
96 120 6 0 8 6 5 14 -3 7 1 16 9 19 7 3 29 36 47 73 19 38 40 76 46 84 7 8 20
41 29 72 9 31 24 67 35 80 11 15 15 29 10 37 -5 9 -10 10 -14 2z"/>
<path d="M19325 4580 c3 -5 8 -10 11 -10 2 0 4 5 4 10 0 6 -5 10 -11 10 -5 0
-7 -4 -4 -10z"/>
</g>
</svg>
